<svg width="19" height="19" viewBox="0 0 19 19" fill="none" xmlns="http://www.w3.org/2000/svg">
<path id="Vector" d="M13.7025 19C6.14688 19 0 12.8531 0 5.29747C0.00131404 4.0012 0.474499 2.74974 1.33116 1.77688C2.18782 0.804014 3.36935 0.176298 4.65504 0.0109912C4.98221 -0.0284864 5.31337 0.0390068 5.599 0.203377C5.88463 0.367748 6.10937 0.620163 6.23962 0.922875L8.15148 5.38361C8.25064 5.61435 8.29107 5.86607 8.26915 6.11626C8.24722 6.36645 8.16363 6.6073 8.02584 6.81728L6.44294 9.23596C7.15773 10.6892 8.33632 11.863 9.79274 12.5714L12.1757 10.9829C12.3863 10.842 12.6288 10.756 12.881 10.7329C13.1333 10.7097 13.3874 10.75 13.6201 10.8502L18.077 12.7603C18.3798 12.8905 18.6322 13.1152 18.7966 13.4009C18.961 13.6865 19.0285 14.0177 18.989 14.3449C18.8237 15.6306 18.196 16.8121 17.2231 17.6688C16.2503 18.5255 14.9988 18.9987 13.7025 19ZM4.84024 1.52271C3.92317 1.64175 3.08075 2.09046 2.47025 2.78506C1.85974 3.47967 1.52286 4.3727 1.5225 5.29747C1.52616 8.52669 2.81059 11.6226 5.09399 13.906C7.37739 16.1894 10.4733 17.4738 13.7025 17.4775C14.6282 17.4768 15.522 17.139 16.2169 16.5275C16.9118 15.9159 17.3603 15.0722 17.4786 14.1541L13.0204 12.2497L10.6382 13.8382C10.4192 13.9845 10.166 14.0714 9.90339 14.0904C9.64076 14.1094 9.37769 14.0599 9.13993 13.9468C7.36928 13.0887 5.93678 11.6627 5.0707 9.89602C4.95695 9.65967 4.90622 9.39794 4.92343 9.13621C4.94064 8.87448 5.02521 8.62165 5.16892 8.40223L6.75192 5.98345L4.84024 1.52271Z" fill="black" fill-opacity="0.55"/>
</svg>
