<svg width="17" height="18" viewBox="0 0 17 18" fill="none" xmlns="http://www.w3.org/2000/svg">
<path id="Vector" d="M14.4643 5.78571H11.8929V3.85714C11.8929 3.35062 11.7931 2.84905 11.5992 2.38108C11.4054 1.91311 11.1213 1.4879 10.7631 1.12973C10.405 0.771562 9.97975 0.487447 9.51178 0.293608C9.04381 0.099768 8.54224 0 8.03571 0C7.52919 0 7.02762 0.099768 6.55965 0.293608C6.09168 0.487447 5.66647 0.771562 5.3083 1.12973C4.95013 1.4879 4.66602 1.91311 4.47218 2.38108C4.27834 2.84905 4.17857 3.35062 4.17857 3.85714V5.78571H1.60714C1.18105 5.7862 0.772552 5.95568 0.47126 6.25697C0.169967 6.55827 0.000487463 6.96677 0 7.39286V16.3929C0.000487463 16.8189 0.169967 17.2274 0.47126 17.5287C0.772552 17.83 1.18105 17.9995 1.60714 18H14.4643C14.8904 17.9995 15.2989 17.83 15.6002 17.5287C15.9015 17.2274 16.0709 16.8189 16.0714 16.3929V7.39286C16.0709 6.96677 15.9015 6.55827 15.6002 6.25697C15.2989 5.95568 14.8904 5.7862 14.4643 5.78571ZM6.10714 3.85714C6.10714 3.34565 6.31033 2.85511 6.67201 2.49344C7.03369 2.13176 7.52423 1.92857 8.03571 1.92857C8.5472 1.92857 9.03774 2.13176 9.39942 2.49344C9.7611 2.85511 9.96429 3.34565 9.96429 3.85714V5.78571H6.10714V3.85714ZM14.1429 16.0714H1.92857V7.71429H14.1429V16.0714ZM8.03571 8.67857C7.439 8.67848 6.86084 8.88595 6.40033 9.26542C5.93982 9.64489 5.62564 10.1727 5.51164 10.7584C5.39764 11.3442 5.49093 11.9513 5.77551 12.4758C6.06009 13.0003 6.51824 13.4094 7.07143 13.6331V14.1429C7.07143 14.3986 7.17302 14.6439 7.35386 14.8247C7.5347 15.0055 7.77997 15.1071 8.03571 15.1071C8.29146 15.1071 8.53673 15.0055 8.71757 14.8247C8.89841 14.6439 9 14.3986 9 14.1429V13.6331C9.55319 13.4094 10.0113 13.0003 10.2959 12.4758C10.5805 11.9513 10.6738 11.3442 10.5598 10.7584C10.4458 10.1727 10.1316 9.64489 9.6711 9.26542C9.21059 8.88595 8.63243 8.67848 8.03571 8.67857ZM8.03571 10.6071C8.16286 10.6071 8.28715 10.6448 8.39287 10.7155C8.49858 10.7861 8.58098 10.8865 8.62964 11.004C8.67829 11.1215 8.69102 11.2507 8.66622 11.3754C8.64141 11.5001 8.58019 11.6147 8.49028 11.7046C8.40038 11.7945 8.28583 11.8557 8.16113 11.8805C8.03643 11.9053 7.90717 11.8926 7.7897 11.8439C7.67224 11.7953 7.57184 11.7129 7.5012 11.6072C7.43056 11.5014 7.39286 11.3771 7.39286 11.25C7.39305 11.0796 7.46084 10.9162 7.58136 10.7956C7.70188 10.6751 7.86528 10.6073 8.03571 10.6071Z" fill="black" fill-opacity="0.55"/>
</svg>
