<svg width="22" height="22" viewBox="0 0 22 22" fill="none" xmlns="http://www.w3.org/2000/svg">
<g id="Communication / Mail">
<path id="Vector" d="M3.66667 5.50016L9.26533 9.72807L9.2672 9.72962C9.88886 10.1855 10.1999 10.4136 10.5405 10.5017C10.8416 10.5796 11.1581 10.5796 11.4592 10.5017C11.8002 10.4135 12.1121 10.1848 12.7349 9.72807C12.7349 9.72807 16.3259 6.97227 18.3333 5.50016M2.75 14.4837V7.51701C2.75 6.49025 2.75 5.97648 2.94982 5.58431C3.12559 5.23935 3.40585 4.95909 3.75081 4.78332C4.14299 4.5835 4.65675 4.5835 5.68351 4.5835H16.3168C17.3436 4.5835 17.8563 4.5835 18.2484 4.78332C18.5934 4.95909 18.8746 5.23935 19.0504 5.58431C19.25 5.9761 19.25 6.48924 19.25 7.514V14.4868C19.25 15.5115 19.25 16.0239 19.0504 16.4157C18.8746 16.7607 18.5934 17.0414 18.2484 17.2172C17.8567 17.4168 17.3443 17.4168 16.3195 17.4168H5.6805C4.65574 17.4168 4.1426 17.4168 3.75081 17.2172C3.40585 17.0414 3.12559 16.7607 2.94982 16.4157C2.75 16.0235 2.75 15.5104 2.75 14.4837Z" stroke="black" stroke-opacity="0.55" stroke-width="1.5" stroke-linecap="round" stroke-linejoin="round"/>
</g>
</svg>
