<svg width="448" height="63" viewBox="0 0 448 63" fill="none" xmlns="http://www.w3.org/2000/svg">
<g filter="url(#filter0_i_1570_1062)">
<rect width="448" height="63" rx="7" fill="white"/>
</g>
<path d="M33.4643 29.7857H30.8929V27.8571C30.8929 27.3506 30.7931 26.849 30.5992 26.3811C30.4054 25.9131 30.1213 25.4879 29.7631 25.1297C29.405 24.7716 28.9797 24.4874 28.5118 24.2936C28.0438 24.0998 27.5422 24 27.0357 24C26.5292 24 26.0276 24.0998 25.5596 24.2936C25.0917 24.4874 24.6665 24.7716 24.3083 25.1297C23.9501 25.4879 23.666 25.9131 23.4722 26.3811C23.2783 26.849 23.1786 27.3506 23.1786 27.8571V29.7857H20.6071C20.1811 29.7862 19.7726 29.9557 19.4713 30.257C19.17 30.5583 19.0005 30.9668 19 31.3929V40.3929C19.0005 40.8189 19.17 41.2274 19.4713 41.5287C19.7726 41.83 20.1811 41.9995 20.6071 42H33.4643C33.8904 41.9995 34.2989 41.83 34.6002 41.5287C34.9015 41.2274 35.0709 40.8189 35.0714 40.3929V31.3929C35.0709 30.9668 34.9015 30.5583 34.6002 30.257C34.2989 29.9557 33.8904 29.7862 33.4643 29.7857ZM25.1071 27.8571C25.1071 27.3457 25.3103 26.8551 25.672 26.4934C26.0337 26.1318 26.5242 25.9286 27.0357 25.9286C27.5472 25.9286 28.0377 26.1318 28.3994 26.4934C28.7611 26.8551 28.9643 27.3457 28.9643 27.8571V29.7857H25.1071V27.8571ZM33.1429 40.0714H20.9286V31.7143H33.1429V40.0714ZM27.0357 32.6786C26.439 32.6785 25.8608 32.886 25.4003 33.2654C24.9398 33.6449 24.6256 34.1727 24.5116 34.7584C24.3976 35.3442 24.4909 35.9513 24.7755 36.4758C25.0601 37.0003 25.5182 37.4094 26.0714 37.6331V38.1429C26.0714 38.3986 26.173 38.6439 26.3539 38.8247C26.5347 39.0055 26.78 39.1071 27.0357 39.1071C27.2915 39.1071 27.5367 39.0055 27.7176 38.8247C27.8984 38.6439 28 38.3986 28 38.1429V37.6331C28.5532 37.4094 29.0113 37.0003 29.2959 36.4758C29.5805 35.9513 29.6738 35.3442 29.5598 34.7584C29.4458 34.1727 29.1316 33.6449 28.6711 33.2654C28.2106 32.886 27.6324 32.6785 27.0357 32.6786ZM27.0357 34.6071C27.1629 34.6071 27.2871 34.6448 27.3929 34.7155C27.4986 34.7861 27.581 34.8865 27.6296 35.004C27.6783 35.1215 27.691 35.2507 27.6662 35.3754C27.6414 35.5001 27.5802 35.6147 27.4903 35.7046C27.4004 35.7945 27.2858 35.8557 27.1611 35.8805C27.0364 35.9053 26.9072 35.8926 26.7897 35.8439C26.6722 35.7953 26.5718 35.7129 26.5012 35.6072C26.4306 35.5014 26.3929 35.3771 26.3929 35.25C26.3931 35.0796 26.4608 34.9162 26.5814 34.7956C26.7019 34.6751 26.8653 34.6073 27.0357 34.6071Z" fill="black" fill-opacity="0.55"/>
<defs>
<filter id="filter0_i_1570_1062" x="0" y="0" width="449" height="64" filterUnits="userSpaceOnUse" color-interpolation-filters="sRGB">
<feFlood flood-opacity="0" result="BackgroundImageFix"/>
<feBlend mode="normal" in="SourceGraphic" in2="BackgroundImageFix" result="shape"/>
<feColorMatrix in="SourceAlpha" type="matrix" values="0 0 0 0 0 0 0 0 0 0 0 0 0 0 0 0 0 0 127 0" result="hardAlpha"/>
<feOffset dx="1" dy="1"/>
<feGaussianBlur stdDeviation="4"/>
<feComposite in2="hardAlpha" operator="arithmetic" k2="-1" k3="1"/>
<feColorMatrix type="matrix" values="0 0 0 0 0 0 0 0 0 0 0 0 0 0 0 0 0 0 0.25 0"/>
<feBlend mode="normal" in2="shape" result="effect1_innerShadow_1570_1062"/>
</filter>
</defs>
</svg>
