<svg width="236" height="48" viewBox="0 0 236 48" fill="none" xmlns="http://www.w3.org/2000/svg">
<rect width="236" height="48" rx="24" fill="#2B3252"/>
<g filter="url(#filter0_d_1326_3464)">
<path d="M72 17H64C63.0681 17 62.6019 17 62.2344 17.1522C61.7443 17.3552 61.3552 17.7448 61.1522 18.2349C61 18.6024 61 19.0683 61 20.0002C62.6569 20.0002 64 21.3429 64 22.9998C64 24.6566 62.6569 26 61 26C61 26.9319 61 27.3978 61.1522 27.7654C61.3552 28.2554 61.7443 28.6447 62.2344 28.8477C62.6019 28.9999 63.0681 29 64 29H72M72 17H76C76.9319 17 77.3978 17 77.7654 17.1522C78.2554 17.3552 78.6447 17.7448 78.8477 18.2349C78.9999 18.6024 78.9999 19.0683 78.9999 20.0002C77.343 20.0002 76 21.3431 76 23C76 24.6569 77.343 26 78.9999 26C78.9999 26.9319 78.9999 27.3978 78.8477 27.7654C78.6447 28.2554 78.2554 28.6447 77.7654 28.8477C77.3978 28.9999 76.9319 29 76 29H72M72 17V29" stroke="#FAD744" stroke-width="2" stroke-linecap="round" stroke-linejoin="round" shape-rendering="crispEdges"/>
</g>
<g filter="url(#filter1_d_1326_3464)">
<path d="M109.726 20.334H112.064V21.538H109.726V20.334ZM109.726 24.254H112.064V25.458H109.726V24.254ZM114.164 17.366H115.564V30.162H114.164V17.366ZM111.63 17.604H113.002V29.546H111.63V17.604ZM107.514 18.36C109.194 18.36 110.272 20.096 110.272 22.896C110.272 25.71 109.194 27.446 107.514 27.446C105.848 27.446 104.77 25.71 104.77 22.896C104.77 20.096 105.848 18.36 107.514 18.36ZM107.514 19.732C106.632 19.732 106.1 20.88 106.1 22.896C106.1 24.912 106.632 26.06 107.514 26.06C108.396 26.06 108.942 24.912 108.942 22.896C108.942 20.88 108.396 19.732 107.514 19.732ZM127.043 17.366H128.443V30.162H127.043V17.366ZM125.223 22.35H127.533V23.54H125.223V22.35ZM124.215 17.604H125.601V29.546H124.215V17.604ZM117.929 18.766H122.885V26.83H117.929V18.766ZM121.513 19.928H119.301V25.682H121.513V19.928ZM139.88 17.366H141.28V30.162H139.88V17.366ZM137.948 22.448H140.258V23.638H137.948V22.448ZM136.996 17.618H138.368V29.532H136.996V17.618ZM130.962 18.85H132.432V26.242H130.962V18.85ZM130.962 25.668H131.802C133.09 25.668 134.532 25.598 136.17 25.276L136.324 26.55C134.616 26.872 133.146 26.928 131.802 26.928H130.962V25.668ZM149.021 19.172H152.871V20.362H149.021V19.172ZM149.021 22H152.871V23.19H149.021V22ZM145.255 25.57H153.879V30.162H152.409V26.746H145.255V25.57ZM152.409 17.366H153.879V24.926H152.409V17.366ZM146.781 18.052C148.671 18.052 150.113 19.354 150.113 21.174C150.113 23.008 148.671 24.296 146.781 24.296C144.877 24.296 143.449 23.008 143.449 21.174C143.449 19.354 144.877 18.052 146.781 18.052ZM146.781 19.312C145.675 19.312 144.849 20.054 144.849 21.174C144.849 22.308 145.675 23.05 146.781 23.05C147.887 23.05 148.713 22.308 148.713 21.174C148.713 20.054 147.887 19.312 146.781 19.312Z" fill="#FAD744"/>
</g>
<defs>
<filter id="filter0_d_1326_3464" x="54" y="10" width="32" height="26" filterUnits="userSpaceOnUse" color-interpolation-filters="sRGB">
<feFlood flood-opacity="0" result="BackgroundImageFix"/>
<feColorMatrix in="SourceAlpha" type="matrix" values="0 0 0 0 0 0 0 0 0 0 0 0 0 0 0 0 0 0 127 0" result="hardAlpha"/>
<feOffset/>
<feGaussianBlur stdDeviation="3"/>
<feComposite in2="hardAlpha" operator="out"/>
<feColorMatrix type="matrix" values="0 0 0 0 1 0 0 0 0 1 0 0 0 0 1 0 0 0 0.5 0"/>
<feBlend mode="normal" in2="BackgroundImageFix" result="effect1_dropShadow_1326_3464"/>
<feBlend mode="normal" in="SourceGraphic" in2="effect1_dropShadow_1326_3464" result="shape"/>
</filter>
<filter id="filter1_d_1326_3464" x="99.77" y="12.3662" width="59.1089" height="22.7959" filterUnits="userSpaceOnUse" color-interpolation-filters="sRGB">
<feFlood flood-opacity="0" result="BackgroundImageFix"/>
<feColorMatrix in="SourceAlpha" type="matrix" values="0 0 0 0 0 0 0 0 0 0 0 0 0 0 0 0 0 0 127 0" result="hardAlpha"/>
<feOffset/>
<feGaussianBlur stdDeviation="2.5"/>
<feComposite in2="hardAlpha" operator="out"/>
<feColorMatrix type="matrix" values="0 0 0 0 1 0 0 0 0 1 0 0 0 0 1 0 0 0 0.5 0"/>
<feBlend mode="normal" in2="BackgroundImageFix" result="effect1_dropShadow_1326_3464"/>
<feBlend mode="normal" in="SourceGraphic" in2="effect1_dropShadow_1326_3464" result="shape"/>
</filter>
</defs>
</svg>
