<svg width="236" height="48" viewBox="0 0 236 48" fill="none" xmlns="http://www.w3.org/2000/svg">
<rect x="0.5" y="0.5" width="235" height="47" rx="23.5" fill="white" stroke="black"/>
<path d="M105.102 25.08H106.572V27.18H105.102V25.08ZM110.702 17.366H112.172V30.162H110.702V17.366ZM101.896 27.866L101.714 26.662C104.08 26.648 107.23 26.634 109.96 26.27L110.058 27.348C107.244 27.838 104.206 27.866 101.896 27.866ZM101.966 18.864H109.708V20.026H101.966V18.864ZM105.83 20.656C107.692 20.656 108.966 21.608 108.966 23.036C108.966 24.478 107.692 25.416 105.83 25.416C103.982 25.416 102.708 24.478 102.708 23.036C102.708 21.608 103.982 20.656 105.83 20.656ZM105.83 21.776C104.822 21.776 104.108 22.266 104.108 23.036C104.108 23.82 104.822 24.296 105.83 24.296C106.852 24.296 107.566 23.82 107.566 23.036C107.566 22.266 106.852 21.776 105.83 21.776ZM105.102 17.394H106.572V19.522H105.102V17.394ZM118.009 23.862H119.479V26.69H118.009V23.862ZM123.651 17.366H125.121V27.082H123.651V17.366ZM116.175 28.72H125.415V29.91H116.175V28.72ZM116.175 26.144H117.645V29.042H116.175V26.144ZM114.649 24.352L114.453 23.162C116.805 23.162 119.955 23.134 122.657 22.784L122.755 23.848C120.011 24.296 116.959 24.352 114.649 24.352ZM121.131 24.87H124.001V25.906H121.131V24.87ZM118.597 17.856C120.459 17.856 121.761 18.752 121.761 20.11C121.761 21.468 120.459 22.35 118.597 22.35C116.721 22.35 115.433 21.468 115.433 20.11C115.433 18.752 116.721 17.856 118.597 17.856ZM118.597 18.934C117.547 18.934 116.819 19.368 116.819 20.11C116.819 20.838 117.547 21.272 118.597 21.272C119.633 21.272 120.361 20.838 120.361 20.11C120.361 19.368 119.633 18.934 118.597 18.934ZM134.276 20.586H136.95V21.79H134.276V20.586ZM136.53 17.366H138V24.982H136.53V17.366ZM133.73 25.318C136.404 25.318 138.042 26.228 138.042 27.74C138.042 29.28 136.404 30.162 133.73 30.162C131.056 30.162 129.418 29.28 129.418 27.74C129.418 26.228 131.056 25.318 133.73 25.318ZM133.73 26.452C131.924 26.452 130.874 26.9 130.874 27.74C130.874 28.58 131.924 29.028 133.73 29.028C135.55 29.028 136.586 28.58 136.586 27.74C136.586 26.9 135.55 26.452 133.73 26.452ZM130.524 18.654H131.714V19.592C131.714 21.986 130.412 24.1 128.144 24.912L127.388 23.75C129.39 23.05 130.524 21.342 130.524 19.592V18.654ZM130.818 18.654H131.994V19.578C131.994 21.174 133.086 22.756 135.004 23.414L134.276 24.576C132.064 23.806 130.818 21.79 130.818 19.578V18.654ZM127.808 18.234H134.668V19.41H127.808V18.234ZM140.281 27.39H151.873V28.594H140.281V27.39ZM145.321 24.478H146.777V27.712H145.321V24.478ZM141.569 18.234H143.039V20.376H149.073V18.234H150.529V24.828H141.569V18.234ZM143.039 21.538V23.638H149.073V21.538H143.039Z" fill="#2B3252"/>
<path d="M75.625 30.375C75.625 26.9923 72.8827 24.25 69.5 24.25C66.1173 24.25 63.375 26.9923 63.375 30.375M69.5 21.625C67.567 21.625 66 20.058 66 18.125C66 16.192 67.567 14.625 69.5 14.625C71.433 14.625 73 16.192 73 18.125C73 20.058 71.433 21.625 69.5 21.625Z" stroke="#2B3252" stroke-width="2" stroke-linecap="round" stroke-linejoin="round"/>
</svg>
